<svg width="20" height="20" viewBox="0 0 20 20" fill="none" xmlns="http://www.w3.org/2000/svg">
    <path
        d="M10.9091 0L10.91 2.78364C12.512 2.98617 14.0011 3.71585 15.1429 4.85774C16.2846 5.99963 17.0141 7.48887 17.2164 9.09091H20V10.9091L17.2164 10.91C17.0139 12.5119 16.2843 14.0009 15.1426 15.1426C14.0009 16.2843 12.5119 17.0139 10.91 17.2164L10.9091 20H9.09091V17.2164C7.48887 17.0141 5.99963 16.2846 4.85774 15.1429C3.71585 14.0011 2.98617 12.512 2.78364 10.91L0 10.9091V9.09091H2.78364C2.98599 7.48873 3.71558 5.9994 4.85749 4.85749C5.9994 3.71558 7.48873 2.98599 9.09091 2.78364V0H10.9091ZM10 4.54545C8.55336 4.54545 7.16598 5.12013 6.14305 6.14305C5.12013 7.16598 4.54545 8.55336 4.54545 10C4.54545 11.4466 5.12013 12.834 6.14305 13.8569C7.16598 14.8799 8.55336 15.4545 10 15.4545C11.4466 15.4545 12.834 14.8799 13.8569 13.8569C14.8799 12.834 15.4545 11.4466 15.4545 10C15.4545 8.55336 14.8799 7.16598 13.8569 6.14305C12.834 5.12013 11.4466 4.54545 10 4.54545ZM10 8.18182C10.4822 8.18182 10.9447 8.37338 11.2856 8.71435C11.6266 9.05533 11.8182 9.51779 11.8182 10C11.8182 10.4822 11.6266 10.9447 11.2856 11.2856C10.9447 11.6266 10.4822 11.8182 10 11.8182C9.51779 11.8182 9.05533 11.6266 8.71435 11.2856C8.37338 10.9447 8.18182 10.4822 8.18182 10C8.18182 9.51779 8.37338 9.05533 8.71435 8.71435C9.05533 8.37338 9.51779 8.18182 10 8.18182Z"
        fill="#1C293D" />
</svg>
