<svg width="148" height="148" viewBox="0 0 148 148" fill="none" xmlns="http://www.w3.org/2000/svg">
    <path fill-rule="evenodd" clip-rule="evenodd"
        d="M138.82 47.7867C138.45 47.9635 138.075 48.1338 137.695 48.2972C122.221 54.9538 104.282 47.8064 97.6251 32.3331C94.9153 26.0339 94.4931 19.3259 95.9891 13.1368C81.2979 20.1624 74.6566 37.6026 81.1497 52.6959C87.8063 68.1692 105.746 75.3166 121.219 68.6601C130.393 64.7134 136.641 56.8004 138.82 47.7867Z"
        fill="url(#paint0_radial_3_473)" />
    <g filter="url(#filter0_ii_3_473)">
        <path fill-rule="evenodd" clip-rule="evenodd"
            d="M79.3495 125.597H115.458C133.43 125.597 148 111.027 148 93.0544C148 75.0818 133.43 60.5122 115.458 60.5122H113.675C107.366 60.5122 101.455 62.214 96.3758 65.1836C89.7727 45.6213 71.2721 31.5363 49.4817 31.5363H47.0299C21.0559 31.5363 -0.000198364 52.5924 -0.000198364 78.5664C-0.000198364 104.54 21.0559 125.596 47.0299 125.596L79.3495 125.597Z"
            fill="#E2E2E2" />
    </g>
    <defs>
        <filter id="filter0_ii_3_473" x="-18.0002" y="16.5363" width="174" height="120.06"
            filterUnits="userSpaceOnUse" color-interpolation-filters="sRGB">
            <feFlood flood-opacity="0" result="BackgroundImageFix" />
            <feBlend mode="normal" in="SourceGraphic" in2="BackgroundImageFix" result="shape" />
            <feColorMatrix in="SourceAlpha" type="matrix"
                values="0 0 0 0 0 0 0 0 0 0 0 0 0 0 0 0 0 0 127 0" result="hardAlpha" />
            <feOffset dx="8" dy="-15" />
            <feGaussianBlur stdDeviation="15" />
            <feComposite in2="hardAlpha" operator="arithmetic" k2="-1" k3="1" />
            <feColorMatrix type="matrix" values="0 0 0 0 0 0 0 0 0 0 0 0 0 0 0 0 0 0 0.2 0" />
            <feBlend mode="normal" in2="shape" result="effect1_innerShadow_3_473" />
            <feColorMatrix in="SourceAlpha" type="matrix"
                values="0 0 0 0 0 0 0 0 0 0 0 0 0 0 0 0 0 0 127 0" result="hardAlpha" />
            <feOffset dx="-18" dy="11" />
            <feGaussianBlur stdDeviation="15" />
            <feComposite in2="hardAlpha" operator="arithmetic" k2="-1" k3="1" />
            <feColorMatrix type="matrix" values="0 0 0 0 1 0 0 0 0 1 0 0 0 0 1 0 0 0 1 0" />
            <feBlend mode="normal" in2="effect1_innerShadow_3_473"
                result="effect2_innerShadow_3_473" />
        </filter>
        <radialGradient id="paint0_radial_3_473" cx="0" cy="0" r="1" gradientUnits="userSpaceOnUse"
            gradientTransform="translate(109.846 22.2735) rotate(105.897) scale(60.7632 59.8096)">
            <stop stop-color="#FFF72C" />
            <stop offset="1" stop-color="#DF7800" />
        </radialGradient>
    </defs>
</svg>
