<svg width="148" height="148" viewBox="0 0 148 148" fill="none" xmlns="http://www.w3.org/2000/svg">
    <g filter="url(#filter0_ii_3_467)">
        <path fill-rule="evenodd" clip-rule="evenodd"
            d="M70.8054 93.9035V93.9049H39.7477C24.2891 93.9049 11.7574 81.3732 11.7574 65.9146C11.7574 50.456 24.2891 37.9243 39.7477 37.9243H41.2814C46.7072 37.9243 51.7912 39.3879 56.16 41.9419C61.8393 25.1153 77.7524 13 96.4951 13H98.604C120.945 13 139.056 31.1109 139.056 53.4518C139.056 75.7926 120.945 93.9035 98.604 93.9035H70.8054Z"
            fill="#E2E2E2" />
    </g>
    <path
        d="M104.687 102.846L105.806 108.044C106.424 110.915 104.66 113.971 101.865 114.871C99.0694 115.771 96.3021 114.173 95.6838 111.303C95.0655 108.432 96.8302 105.375 99.6254 104.476L104.687 102.846Z"
        fill="url(#paint0_radial_3_467)" />
    <path
        d="M48.8687 102.846L49.9883 108.044C50.6066 110.915 48.8419 113.971 46.0467 114.871C43.2515 115.771 40.4843 114.173 39.8659 111.303C39.2476 108.432 41.0123 105.375 43.8076 104.476L48.8687 102.846Z"
        fill="url(#paint1_radial_3_467)" />
    <path
        d="M77.3823 102.846L78.5019 108.044C79.1202 110.915 77.3555 113.971 74.5603 114.871C71.7651 115.771 68.9979 114.173 68.3796 111.303C67.7612 108.432 69.526 105.375 72.3212 104.476L77.3823 102.846Z"
        fill="url(#paint2_radial_3_467)" />
    <path
        d="M19.0992 102.846L20.2188 108.044C20.8371 110.915 19.0724 113.971 16.2772 114.871C13.482 115.771 10.7147 114.173 10.0964 111.303C9.47809 108.432 11.2428 105.375 14.038 104.476L19.0992 102.846Z"
        fill="url(#paint3_radial_3_467)" />
    <path
        d="M33.9841 121.452L35.1037 126.65C35.722 129.521 33.9573 132.577 31.1621 133.477C28.3668 134.377 25.5996 132.779 24.9813 129.909C24.363 127.038 26.1277 123.981 28.9229 123.081L33.9841 121.452Z"
        fill="url(#paint4_radial_3_467)" />
    <path
        d="M60.0324 121.452L61.152 126.65C61.7703 129.521 60.0056 132.577 57.2104 133.477C54.4152 134.377 51.648 132.779 51.0296 129.909C50.4113 127.038 52.176 123.981 54.9713 123.081L60.0324 121.452Z"
        fill="url(#paint5_radial_3_467)" />
    <path
        d="M86.0807 121.452L87.2003 126.65C87.8186 129.521 86.0539 132.577 83.2587 133.477C80.4635 134.377 77.6962 132.779 77.0779 129.909C76.4596 127.038 78.2243 123.981 81.0195 123.081L86.0807 121.452Z"
        fill="url(#paint6_radial_3_467)" />
    <defs>
        <filter id="filter0_ii_3_467" x="-6.24261" y="-2" width="153.298" height="106.905"
            filterUnits="userSpaceOnUse" color-interpolation-filters="sRGB">
            <feFlood flood-opacity="0" result="BackgroundImageFix" />
            <feBlend mode="normal" in="SourceGraphic" in2="BackgroundImageFix" result="shape" />
            <feColorMatrix in="SourceAlpha" type="matrix"
                values="0 0 0 0 0 0 0 0 0 0 0 0 0 0 0 0 0 0 127 0" result="hardAlpha" />
            <feOffset dx="8" dy="-15" />
            <feGaussianBlur stdDeviation="15" />
            <feComposite in2="hardAlpha" operator="arithmetic" k2="-1" k3="1" />
            <feColorMatrix type="matrix" values="0 0 0 0 0 0 0 0 0 0 0 0 0 0 0 0 0 0 0.2 0" />
            <feBlend mode="normal" in2="shape" result="effect1_innerShadow_3_467" />
            <feColorMatrix in="SourceAlpha" type="matrix"
                values="0 0 0 0 0 0 0 0 0 0 0 0 0 0 0 0 0 0 127 0" result="hardAlpha" />
            <feOffset dx="-18" dy="11" />
            <feGaussianBlur stdDeviation="15" />
            <feComposite in2="hardAlpha" operator="arithmetic" k2="-1" k3="1" />
            <feColorMatrix type="matrix" values="0 0 0 0 1 0 0 0 0 1 0 0 0 0 1 0 0 0 1 0" />
            <feBlend mode="normal" in2="effect1_innerShadow_3_467"
                result="effect2_innerShadow_3_467" />
        </filter>
        <radialGradient id="paint0_radial_3_467" cx="0" cy="0" r="1" gradientUnits="userSpaceOnUse"
            gradientTransform="translate(95.3356 112.987) rotate(-34.1445) scale(13.8863 10.2306)">
            <stop stop-color="#ADEBFF" />
            <stop offset="1" stop-color="#5CC4E5" />
        </radialGradient>
        <radialGradient id="paint1_radial_3_467" cx="0" cy="0" r="1" gradientUnits="userSpaceOnUse"
            gradientTransform="translate(39.5177 112.987) rotate(-34.1445) scale(13.8863 10.2306)">
            <stop stop-color="#ADEBFF" />
            <stop offset="1" stop-color="#5CC4E5" />
        </radialGradient>
        <radialGradient id="paint2_radial_3_467" cx="0" cy="0" r="1" gradientUnits="userSpaceOnUse"
            gradientTransform="translate(68.0313 112.987) rotate(-34.1445) scale(13.8863 10.2306)">
            <stop stop-color="#ADEBFF" />
            <stop offset="1" stop-color="#5CC4E5" />
        </radialGradient>
        <radialGradient id="paint3_radial_3_467" cx="0" cy="0" r="1" gradientUnits="userSpaceOnUse"
            gradientTransform="translate(9.74818 112.987) rotate(-34.1445) scale(13.8863 10.2306)">
            <stop stop-color="#ADEBFF" />
            <stop offset="1" stop-color="#5CC4E5" />
        </radialGradient>
        <radialGradient id="paint4_radial_3_467" cx="0" cy="0" r="1" gradientUnits="userSpaceOnUse"
            gradientTransform="translate(24.6331 131.593) rotate(-34.1445) scale(13.8863 10.2306)">
            <stop stop-color="#ADEBFF" />
            <stop offset="1" stop-color="#5CC4E5" />
        </radialGradient>
        <radialGradient id="paint5_radial_3_467" cx="0" cy="0" r="1" gradientUnits="userSpaceOnUse"
            gradientTransform="translate(50.6814 131.593) rotate(-34.1445) scale(13.8863 10.2306)">
            <stop stop-color="#ADEBFF" />
            <stop offset="1" stop-color="#5CC4E5" />
        </radialGradient>
        <radialGradient id="paint6_radial_3_467" cx="0" cy="0" r="1" gradientUnits="userSpaceOnUse"
            gradientTransform="translate(76.7297 131.593) rotate(-34.1445) scale(13.8863 10.2306)">
            <stop stop-color="#ADEBFF" />
            <stop offset="1" stop-color="#5CC4E5" />
        </radialGradient>
    </defs>
</svg>
