<svg width="148" height="148" viewBox="0 0 148 148" fill="none" xmlns="http://www.w3.org/2000/svg">
    <g filter="url(#filter0_ii_3_543)">
        <path fill-rule="evenodd" clip-rule="evenodd"
            d="M69.2284 92.8907V92.8922H37.0239C20.9945 92.8922 8.00012 79.8978 8.00012 63.8684C8.00012 47.839 20.9945 34.8445 37.0239 34.8445H38.6143C44.2404 34.8445 49.5121 36.3622 54.0423 39.0105C59.9312 21.5627 76.4319 9 95.8667 9H98.0534C121.219 9 139.999 27.7796 139.999 50.9454C139.999 74.1111 121.219 92.8907 98.0534 92.8907H69.2284Z"
            fill="#E2E2E2" />
    </g>
    <path
        d="M39.3563 100.513H42.3512V104.651L45.9408 102.582L47.4382 105.171L43.8487 107.24L47.4382 109.309L45.9407 111.898L42.3512 109.829V113.966H39.3563V109.829L35.767 111.898L34.2696 109.309L37.859 107.24L34.2695 105.171L35.7669 102.582L39.3563 104.651V100.513Z"
        fill="url(#paint0_radial_3_543)" />
    <path
        d="M58.5148 104.998H55.52V109.135L51.9303 107.066L50.4329 109.656L54.0224 111.724L50.433 113.793L51.9304 116.382L55.52 114.313V118.451H58.5148V114.313L62.1041 116.382L63.6015 113.793L60.012 111.724L63.6016 109.655L62.1042 107.066L58.5148 109.135V104.998Z"
        fill="url(#paint1_radial_3_543)" />
    <path
        d="M90.8417 104.998H87.8469V109.135L84.2572 107.066L82.7598 109.656L86.3494 111.724L82.7601 113.793L84.2575 116.382L87.8469 114.313V118.451H90.8417V114.313L94.431 116.382L95.9284 113.793L92.339 111.724L95.9287 109.655L94.4313 107.066L90.8417 109.135V104.998Z"
        fill="url(#paint2_radial_3_543)" />
    <path
        d="M74.6782 100.513H71.6834V104.651L68.0941 102.582L66.5967 105.171L70.186 107.24L66.5964 109.309L68.0938 111.898L71.6834 109.829V113.966H74.6782V109.829L78.2679 111.898L79.7653 109.309L76.1756 107.24L79.7651 105.171L78.2676 102.582L74.6782 104.651V100.513Z"
        fill="url(#paint3_radial_3_543)" />
    <path
        d="M40.1094 134.146H37.1145V130.008L33.5249 132.077L32.0275 129.488L35.6169 127.419L32.0275 125.351L33.525 122.762L37.1145 124.83V120.693H40.1094V124.83L43.6987 122.761L45.1961 125.35L41.6066 127.419L45.1962 129.488L43.6988 132.077L40.1094 130.008V134.146Z"
        fill="url(#paint4_radial_3_543)" />
    <path
        d="M72.4363 134.146H69.4414V130.008L65.8518 132.077L64.3544 129.488L67.9439 127.419L64.3546 125.351L65.8521 122.762L69.4414 124.83V120.693H72.4363V124.83L76.0256 122.761L77.523 125.35L73.9336 127.419L77.5233 129.488L76.0259 132.077L72.4363 130.008V134.146Z"
        fill="url(#paint5_radial_3_543)" />
    <path
        d="M56.2728 138.63H53.2779V134.493L49.6887 136.561L48.1913 133.972L51.7805 131.904L48.191 129.835L49.6884 127.246L53.2779 129.315V125.177H56.2728V129.315L59.8625 127.246L61.3599 129.835L57.7702 131.904L61.3596 133.972L59.8622 136.561L56.2728 134.493V138.63Z"
        fill="url(#paint6_radial_3_543)" />
    <defs>
        <filter id="filter0_ii_3_543" x="-9.99988" y="-6" width="157.999" height="109.892"
            filterUnits="userSpaceOnUse" color-interpolation-filters="sRGB">
            <feFlood flood-opacity="0" result="BackgroundImageFix" />
            <feBlend mode="normal" in="SourceGraphic" in2="BackgroundImageFix" result="shape" />
            <feColorMatrix in="SourceAlpha" type="matrix"
                values="0 0 0 0 0 0 0 0 0 0 0 0 0 0 0 0 0 0 127 0" result="hardAlpha" />
            <feOffset dx="8" dy="-15" />
            <feGaussianBlur stdDeviation="15" />
            <feComposite in2="hardAlpha" operator="arithmetic" k2="-1" k3="1" />
            <feColorMatrix type="matrix" values="0 0 0 0 0 0 0 0 0 0 0 0 0 0 0 0 0 0 0.2 0" />
            <feBlend mode="normal" in2="shape" result="effect1_innerShadow_3_543" />
            <feColorMatrix in="SourceAlpha" type="matrix"
                values="0 0 0 0 0 0 0 0 0 0 0 0 0 0 0 0 0 0 127 0" result="hardAlpha" />
            <feOffset dx="-18" dy="11" />
            <feGaussianBlur stdDeviation="15" />
            <feComposite in2="hardAlpha" operator="arithmetic" k2="-1" k3="1" />
            <feColorMatrix type="matrix" values="0 0 0 0 1 0 0 0 0 1 0 0 0 0 1 0 0 0 1 0" />
            <feBlend mode="normal" in2="effect1_innerShadow_3_543"
                result="effect2_innerShadow_3_543" />
        </filter>
        <radialGradient id="paint0_radial_3_543" cx="0" cy="0" r="1" gradientUnits="userSpaceOnUse"
            gradientTransform="translate(65.0991 109.482) rotate(90) scale(8.96861 30.8296)">
            <stop stop-color="#ADEBFF" />
            <stop offset="1" stop-color="#5CC4E5" />
        </radialGradient>
        <radialGradient id="paint1_radial_3_543" cx="0" cy="0" r="1" gradientUnits="userSpaceOnUse"
            gradientTransform="translate(65.0991 109.482) rotate(90) scale(8.96861 30.8296)">
            <stop stop-color="#ADEBFF" />
            <stop offset="1" stop-color="#5CC4E5" />
        </radialGradient>
        <radialGradient id="paint2_radial_3_543" cx="0" cy="0" r="1" gradientUnits="userSpaceOnUse"
            gradientTransform="translate(65.0991 109.482) rotate(90) scale(8.96861 30.8296)">
            <stop stop-color="#ADEBFF" />
            <stop offset="1" stop-color="#5CC4E5" />
        </radialGradient>
        <radialGradient id="paint3_radial_3_543" cx="0" cy="0" r="1" gradientUnits="userSpaceOnUse"
            gradientTransform="translate(65.0991 109.482) rotate(90) scale(8.96861 30.8296)">
            <stop stop-color="#ADEBFF" />
            <stop offset="1" stop-color="#5CC4E5" />
        </radialGradient>
        <radialGradient id="paint4_radial_3_543" cx="0" cy="0" r="1" gradientUnits="userSpaceOnUse"
            gradientTransform="translate(46.6937 129.661) rotate(-90) scale(8.96861 30.8296)">
            <stop stop-color="#ADEBFF" />
            <stop offset="1" stop-color="#5CC4E5" />
        </radialGradient>
        <radialGradient id="paint5_radial_3_543" cx="0" cy="0" r="1" gradientUnits="userSpaceOnUse"
            gradientTransform="translate(46.6937 129.661) rotate(-90) scale(8.96861 30.8296)">
            <stop stop-color="#ADEBFF" />
            <stop offset="1" stop-color="#5CC4E5" />
        </radialGradient>
        <radialGradient id="paint6_radial_3_543" cx="0" cy="0" r="1" gradientUnits="userSpaceOnUse"
            gradientTransform="translate(46.6937 129.661) rotate(-90) scale(8.96861 30.8296)">
            <stop stop-color="#ADEBFF" />
            <stop offset="1" stop-color="#5CC4E5" />
        </radialGradient>
    </defs>
</svg>
